<svg xmlns="http://www.w3.org/2000/svg" width="1009" height="1039" viewBox="0 0 1009 1039">
<g>
<path d="M 0.00 0.00 L 1009.00 0.00 L 1009.00 1039.00 L 0.00 1039.00 ZM 61.00 978.94 C61.00,980.92 61.97,980.93 217.52,980.98 C343.00,981.02 374.14,980.78 374.50,979.77 C374.74,979.07 375.07,929.00 375.22,868.50 L 375.50 758.50 L 506.00 757.88 C630.52,757.29 637.12,757.17 650.00,755.22 C670.60,752.11 685.56,749.05 695.69,745.88 C700.75,744.30 705.39,743.00 706.01,743.00 C708.12,743.00 732.46,733.98 743.50,729.11 C758.84,722.34 758.81,722.35 765.50,718.53 C768.80,716.65 774.00,713.77 777.06,712.14 C781.67,709.67 793.38,702.05 806.00,693.30 C809.79,690.68 820.30,682.81 822.00,681.33 C822.83,680.61 827.10,676.98 831.50,673.26 C844.12,662.60 860.39,646.00 869.30,634.71 C870.51,633.18 872.44,630.93 873.59,629.71 C875.65,627.53 889.55,609.05 891.50,605.90 C892.05,605.01 893.79,602.31 895.36,599.89 C902.94,588.23 905.05,584.72 909.76,576.00 C917.46,561.70 926.89,541.03 931.40,528.50 C935.89,516.05 941.78,496.65 942.88,490.69 C943.47,487.50 944.19,484.50 944.49,484.02 C945.34,482.63 947.06,473.33 948.54,462.00 C949.30,456.23 950.47,447.90 951.15,443.50 C951.85,438.93 952.39,425.64 952.39,412.50 C952.41,370.24 945.95,333.87 931.86,297.00 C930.28,292.88 928.99,289.14 928.99,288.70 C929.00,287.82 925.52,279.56 923.96,276.76 C923.43,275.81 923.00,274.53 923.00,273.93 C923.00,272.39 908.73,243.83 906.14,240.19 C904.96,238.54 904.00,236.88 904.00,236.51 C904.00,236.13 902.73,233.95 901.18,231.66 C893.75,220.72 891.00,216.26 891.00,215.18 C891.00,214.53 890.66,214.00 890.25,213.99 C889.84,213.99 888.38,212.30 887.02,210.24 C872.94,189.00 846.00,159.74 822.50,140.18 C816.45,135.14 810.75,130.38 809.83,129.59 C808.29,128.27 791.84,116.82 788.12,114.48 C787.23,113.92 784.47,112.14 782.00,110.53 C777.54,107.62 776.15,106.82 764.50,100.48 C743.71,89.16 718.40,78.14 708.03,75.88 C706.09,75.46 701.86,74.17 698.63,73.01 C695.40,71.84 690.90,70.51 688.63,70.04 C686.36,69.56 679.97,68.02 674.44,66.60 C668.90,65.19 661.03,63.61 656.94,63.09 C648.27,62.01 642.34,61.15 636.39,60.48 C614.42,57.99 592.16,58.06 430.22,58.51 C412.21,58.57 392.47,58.62 370.81,58.68 L 126.11 59.33 L 126.31 142.92 L 126.50 226.50 L 381.50 227.02 C617.25,227.50 637.25,227.67 646.50,229.27 C652.00,230.22 657.53,231.45 658.80,232.00 C660.06,232.55 662.76,233.00 664.80,233.00 C666.83,233.01 672.26,234.36 676.86,236.00 C681.46,237.65 685.85,239.00 686.61,239.00 C688.39,239.00 713.61,251.49 715.00,253.07 C715.27,253.38 717.75,255.14 720.50,256.99 C727.59,261.76 738.07,270.89 743.60,277.11 C746.20,280.04 749.16,283.33 750.18,284.42 C751.20,285.52 753.89,289.36 756.16,292.96 C758.43,296.56 761.13,300.73 762.16,302.24 C764.34,305.41 777.61,331.36 780.45,338.00 C782.17,342.03 783.71,346.81 788.64,363.50 C790.17,368.68 791.05,374.96 793.15,395.68 C794.39,407.86 793.81,420.99 791.06,443.00 C789.12,458.57 774.90,494.74 767.47,503.02 C766.72,503.86 765.74,505.43 765.30,506.52 C763.30,511.45 750.60,527.36 741.50,536.34 C733.08,544.65 714.30,560.00 712.56,560.00 C712.27,560.00 709.67,561.47 706.77,563.26 C690.94,573.07 666.91,581.88 644.50,586.09 C634.85,587.91 628.41,588.22 592.11,588.65 C558.39,589.05 551.69,588.85 546.71,591.69 C544.96,592.69 543.42,594.06 541.00,595.96 C535.53,600.26 523.25,610.31 520.51,612.74 C519.41,613.71 515.81,616.50 512.51,618.94 C505.79,623.91 498.79,629.73 494.96,633.50 C493.57,634.87 492.08,636.00 491.65,636.00 C491.01,636.00 483.69,641.31 482.00,643.00 C481.73,643.28 479.25,645.27 476.50,647.44 C473.75,649.61 470.83,651.96 470.00,652.68 C467.34,654.98 459.29,661.44 456.35,663.63 C454.78,664.81 449.96,668.63 445.62,672.13 C441.29,675.64 436.77,679.17 435.58,680.00 C434.40,680.83 428.99,685.05 423.56,689.39 C418.14,693.72 412.79,698.00 411.68,698.89 C410.57,699.77 408.67,701.51 407.46,702.75 C406.26,703.99 404.99,705.00 404.64,705.00 C403.69,705.00 395.32,711.48 380.11,724.00 C376.43,727.03 372.70,729.95 371.82,730.50 C370.94,731.05 365.57,735.33 359.87,740.00 C354.18,744.67 347.26,750.18 344.51,752.24 C335.66,758.86 319.68,772.11 319.17,773.25 C318.98,773.66 318.36,774.00 317.79,774.00 C317.21,774.00 314.89,775.59 312.62,777.53 C310.35,779.48 307.15,782.16 305.50,783.49 C303.85,784.82 299.35,788.54 295.50,791.76 C291.65,794.98 286.93,798.71 285.01,800.05 C283.10,801.38 280.85,803.05 280.01,803.77 C274.00,808.90 267.47,814.10 261.36,818.63 C257.43,821.54 252.19,825.63 249.73,827.71 C247.26,829.80 243.79,832.62 242.02,834.00 C240.24,835.38 238.28,836.97 237.65,837.55 C237.02,838.13 232.90,841.41 228.50,844.85 C224.10,848.29 219.24,852.09 217.70,853.30 C216.16,854.51 213.39,856.85 211.55,858.50 C209.71,860.15 206.07,863.08 203.48,865.00 C200.88,866.92 195.77,870.99 192.13,874.03 C188.48,877.08 184.55,880.23 183.39,881.03 C181.12,882.61 166.19,894.57 155.36,903.50 C154.03,904.60 151.04,906.96 148.72,908.75 C140.37,915.20 130.49,923.42 130.17,924.20 C129.98,924.64 129.38,925.00 128.83,925.00 C128.28,925.00 124.83,927.61 121.16,930.80 C117.50,933.98 112.63,937.84 110.34,939.37 C108.05,940.90 102.34,945.37 97.64,949.32 C92.94,953.27 87.00,958.08 84.44,960.00 C78.40,964.54 67.65,973.26 66.98,974.17 C66.69,974.56 65.23,975.34 63.73,975.91 C62.02,976.56 61.00,977.69 61.00,978.94 ZM 57.74 854.74 C58.04,855.53 60.48,854.04 64.35,850.70 C67.73,847.80 73.20,843.45 76.50,841.04 C79.80,838.63 85.43,834.12 89.00,831.02 C92.57,827.91 98.34,823.22 101.82,820.58 C105.29,817.94 109.20,814.82 110.50,813.64 C111.79,812.46 114.29,810.38 116.05,809.00 C117.81,807.62 121.33,804.80 123.87,802.73 C129.75,797.94 129.67,798.00 135.56,793.53 C140.04,790.12 143.77,787.00 155.00,777.25 C157.06,775.46 159.12,774.00 159.57,774.00 C160.03,774.00 161.78,772.71 163.45,771.14 C165.13,769.56 170.55,765.04 175.50,761.09 C187.43,751.57 186.96,751.93 191.52,748.53 C193.71,746.90 199.86,741.95 205.19,737.53 C210.52,733.11 216.51,728.38 218.50,727.00 C220.49,725.62 222.66,724.05 223.31,723.50 C234.58,713.99 239.31,710.07 242.02,708.00 C243.83,706.62 246.92,704.12 248.90,702.43 C253.38,698.61 271.62,684.03 279.45,678.00 C282.67,675.53 286.92,672.12 288.90,670.43 C290.88,668.75 295.20,665.26 298.50,662.69 C314.21,650.44 345.37,625.28 348.91,621.98 C349.81,621.14 353.91,617.92 358.02,614.82 C362.14,611.72 366.59,608.02 367.92,606.59 C369.26,605.17 370.74,604.00 371.21,604.00 C371.68,604.00 376.69,600.06 382.33,595.25 C387.98,590.44 395.22,584.47 398.43,582.00 C401.63,579.53 405.53,576.38 407.08,575.00 C408.63,573.62 411.16,571.51 412.70,570.30 C419.55,564.92 434.81,552.71 438.00,550.05 C439.92,548.45 444.65,544.52 448.50,541.31 C452.35,538.11 457.98,533.60 461.00,531.28 C464.02,528.97 467.81,525.93 469.41,524.54 C471.00,523.14 472.58,521.99 472.91,521.98 C473.23,521.97 475.59,520.01 478.14,517.61 C480.69,515.22 486.77,510.20 491.64,506.46 C496.51,502.72 500.86,499.06 501.30,498.33 C501.74,497.60 502.58,497.00 503.18,497.00 C503.77,497.00 506.00,495.42 508.13,493.50 C510.26,491.58 512.91,490.00 514.02,490.00 C516.51,490.00 519.46,492.94 549.60,525.56 C553.55,529.84 554.93,530.79 555.75,529.79 C556.33,529.08 557.30,521.30 557.90,512.50 C559.21,493.30 560.77,477.48 562.10,470.00 C562.63,466.98 563.51,456.85 564.05,447.50 C564.58,438.15 565.27,429.39 565.58,428.04 C567.31,420.45 571.26,371.19 571.42,355.19 L 571.50 346.89 L 475.60 346.93 C422.86,346.95 379.54,347.12 379.35,347.32 C378.93,347.74 384.39,353.53 404.15,373.56 C412.32,381.84 419.00,389.30 419.00,390.13 C419.00,391.43 414.74,395.21 401.00,406.12 C399.62,407.21 394.23,411.27 389.00,415.16 C383.77,419.04 378.13,423.51 376.45,425.11 C374.78,426.70 373.04,428.00 372.58,428.00 C372.13,428.00 370.28,429.24 368.47,430.75 C362.02,436.14 357.70,439.51 356.11,440.41 C355.23,440.90 352.86,442.70 350.85,444.41 C347.08,447.60 343.40,450.39 339.52,453.00 C338.30,453.83 333.74,457.34 329.40,460.82 C318.76,469.33 319.54,468.74 310.50,475.38 C306.10,478.62 301.82,482.02 300.98,482.95 C300.15,483.89 296.96,486.41 293.90,488.57 C288.59,492.32 276.05,501.96 269.36,507.43 C267.64,508.84 265.79,510.00 265.27,510.00 C264.74,510.00 263.53,510.86 262.58,511.91 C261.62,512.97 255.60,517.80 249.20,522.66 C235.47,533.07 234.98,533.46 229.57,538.00 C227.28,539.92 223.27,543.08 220.65,545.00 C218.03,546.92 214.17,549.85 212.06,551.50 C209.95,553.15 206.93,555.50 205.36,556.73 C203.79,557.96 199.78,561.11 196.45,563.73 C193.12,566.35 189.13,569.40 187.58,570.50 C186.03,571.60 183.05,573.85 180.95,575.50 C178.85,577.15 174.06,580.73 170.31,583.45 C166.57,586.17 162.60,589.20 161.50,590.17 C156.41,594.69 152.17,598.00 151.48,598.00 C151.07,598.00 149.76,599.01 148.57,600.25 C146.64,602.25 139.36,607.79 135.08,610.50 C134.21,611.05 131.87,612.85 129.88,614.50 C124.35,619.09 119.84,622.46 118.63,622.91 C118.03,623.14 116.95,623.90 116.24,624.61 C114.95,625.91 106.41,632.88 104.51,634.20 C103.95,634.58 101.65,636.50 99.38,638.45 C97.11,640.40 94.96,642.00 94.61,642.00 C94.25,642.00 90.93,644.36 87.23,647.24 C83.53,650.13 80.05,652.81 79.50,653.19 C78.95,653.58 76.65,655.50 74.38,657.45 C72.11,659.40 69.92,661.00 69.51,661.00 C69.11,661.00 66.09,663.32 62.82,666.15 L 56.87 671.31 L 57.07 762.40 C57.18,812.51 57.48,854.06 57.74,854.74 Z" fill="rgb(0,0,0)"/>
<path d="M 61.00 978.94 C61.00,977.69 62.02,976.56 63.73,975.91 C65.23,975.34 66.69,974.56 66.98,974.17 C67.65,973.26 78.40,964.54 84.44,960.00 C87.00,958.08 92.94,953.27 97.64,949.32 C102.34,945.37 108.05,940.90 110.34,939.37 C112.63,937.84 117.50,933.98 121.16,930.80 C124.83,927.61 128.28,925.00 128.83,925.00 C129.38,925.00 129.98,924.64 130.17,924.20 C130.49,923.42 140.37,915.20 148.72,908.75 C151.04,906.96 154.03,904.60 155.36,903.50 C166.19,894.57 181.12,882.61 183.39,881.03 C184.55,880.23 188.48,877.08 192.13,874.03 C195.77,870.99 200.88,866.92 203.48,865.00 C206.07,863.08 209.71,860.15 211.55,858.50 C213.39,856.85 216.16,854.51 217.70,853.30 C219.24,852.09 224.10,848.29 228.50,844.85 C232.90,841.41 237.02,838.13 237.65,837.55 C238.28,836.97 240.24,835.38 242.02,834.00 C243.79,832.62 247.26,829.80 249.73,827.71 C252.19,825.63 257.43,821.54 261.36,818.63 C267.47,814.10 274.00,808.90 280.01,803.77 C280.85,803.05 283.10,801.38 285.01,800.05 C286.93,798.71 291.65,794.98 295.50,791.76 C299.35,788.54 303.85,784.82 305.50,783.49 C307.15,782.16 310.35,779.48 312.62,777.53 C314.89,775.59 317.21,774.00 317.79,774.00 C318.36,774.00 318.98,773.66 319.17,773.25 C319.68,772.11 335.66,758.86 344.51,752.24 C347.26,750.18 354.18,744.67 359.87,740.00 C365.57,735.33 370.94,731.05 371.82,730.50 C372.70,729.95 376.43,727.03 380.11,724.00 C395.32,711.48 403.69,705.00 404.64,705.00 C404.99,705.00 406.26,703.99 407.46,702.75 C408.67,701.51 410.57,699.77 411.68,698.89 C412.79,698.00 418.14,693.72 423.56,689.39 C428.99,685.05 434.40,680.83 435.58,680.00 C436.77,679.17 441.29,675.64 445.62,672.13 C449.96,668.63 454.78,664.81 456.35,663.63 C459.29,661.44 467.34,654.98 470.00,652.68 C470.83,651.96 473.75,649.61 476.50,647.44 C479.25,645.27 481.73,643.28 482.00,643.00 C483.69,641.31 491.01,636.00 491.65,636.00 C492.08,636.00 493.57,634.87 494.96,633.50 C498.79,629.73 505.79,623.91 512.51,618.94 C515.81,616.50 519.41,613.71 520.51,612.74 C523.25,610.31 535.53,600.26 541.00,595.96 C550.32,588.64 546.52,589.19 592.11,588.65 C628.41,588.22 634.85,587.91 644.50,586.09 C666.91,581.88 690.94,573.07 706.77,563.26 C709.67,561.47 712.27,560.00 712.56,560.00 C714.30,560.00 733.08,544.65 741.50,536.34 C750.60,527.36 763.30,511.45 765.30,506.52 C765.74,505.43 766.72,503.86 767.47,503.02 C774.90,494.74 789.12,458.57 791.06,443.00 C793.81,420.99 794.39,407.86 793.15,395.68 C791.05,374.96 790.17,368.68 788.64,363.50 C783.71,346.81 782.17,342.03 780.45,338.00 C777.61,331.36 764.34,305.41 762.16,302.24 C761.13,300.73 758.43,296.56 756.16,292.96 C753.89,289.36 751.20,285.52 750.18,284.42 C749.16,283.33 746.20,280.04 743.60,277.11 C738.07,270.89 727.59,261.76 720.50,256.99 C717.75,255.14 715.27,253.38 715.00,253.07 C713.61,251.49 688.39,239.00 686.61,239.00 C685.85,239.00 681.46,237.65 676.86,236.00 C672.26,234.36 666.83,233.01 664.80,233.00 C662.76,233.00 660.06,232.55 658.80,232.00 C657.53,231.45 652.00,230.22 646.50,229.27 C637.25,227.67 617.25,227.50 381.50,227.02 L 126.50 226.50 L 126.31 142.92 L 126.11 59.33 L 370.81 58.68 C639.90,57.96 612.68,57.54 656.94,63.09 C661.03,63.61 668.90,65.19 674.44,66.60 C679.97,68.02 686.36,69.56 688.63,70.04 C690.90,70.51 695.40,71.84 698.63,73.01 C701.86,74.17 706.09,75.46 708.03,75.88 C718.40,78.14 743.71,89.16 764.50,100.48 C776.15,106.82 777.54,107.62 782.00,110.53 C784.47,112.14 787.23,113.92 788.12,114.48 C791.84,116.82 808.29,128.27 809.83,129.59 C810.75,130.38 816.45,135.14 822.50,140.18 C846.00,159.74 872.94,189.00 887.02,210.24 C888.38,212.30 889.84,213.99 890.25,213.99 C890.66,214.00 891.00,214.53 891.00,215.18 C891.00,216.26 893.75,220.72 901.18,231.66 C902.73,233.95 904.00,236.13 904.00,236.51 C904.00,236.88 904.96,238.54 906.14,240.19 C908.73,243.83 923.00,272.39 923.00,273.93 C923.00,274.53 923.43,275.81 923.96,276.76 C925.52,279.56 929.00,287.82 928.99,288.70 C928.99,289.14 930.28,292.88 931.86,297.00 C945.95,333.87 952.41,370.24 952.39,412.50 C952.39,425.64 951.85,438.93 951.15,443.50 C950.47,447.90 949.30,456.23 948.54,462.00 C947.06,473.33 945.34,482.63 944.49,484.02 C944.19,484.50 943.47,487.50 942.88,490.69 C941.78,496.65 935.89,516.05 931.40,528.50 C926.89,541.03 917.46,561.70 909.76,576.00 C905.05,584.72 902.94,588.23 895.36,599.89 C893.79,602.31 892.05,605.01 891.50,605.90 C889.55,609.05 875.65,627.53 873.59,629.71 C872.44,630.93 870.51,633.18 869.30,634.71 C860.39,646.00 844.12,662.60 831.50,673.26 C827.10,676.98 822.83,680.61 822.00,681.33 C820.30,682.81 809.79,690.68 806.00,693.30 C793.38,702.05 781.67,709.67 777.06,712.14 C774.00,713.77 768.80,716.65 765.50,718.53 C758.81,722.35 758.84,722.34 743.50,729.11 C732.46,733.98 708.12,743.00 706.01,743.00 C705.39,743.00 700.75,744.30 695.69,745.88 C685.56,749.05 670.60,752.11 650.00,755.22 C637.12,757.17 630.52,757.29 506.00,757.88 L 375.50 758.50 L 375.22 868.50 C375.07,929.00 374.74,979.07 374.50,979.77 C374.14,980.78 343.00,981.02 217.52,980.98 C61.97,980.93 61.00,980.92 61.00,978.94 ZM 57.74 854.74 C57.48,854.06 57.18,812.51 57.07,762.40 L 56.87 671.31 L 62.82 666.15 C66.09,663.32 69.11,661.00 69.51,661.00 C69.92,661.00 72.11,659.40 74.38,657.45 C76.65,655.50 78.95,653.58 79.50,653.19 C80.05,652.81 83.53,650.13 87.23,647.24 C90.93,644.36 94.25,642.00 94.61,642.00 C94.96,642.00 97.11,640.40 99.38,638.45 C101.65,636.50 103.95,634.58 104.51,634.20 C106.41,632.88 114.95,625.91 116.24,624.61 C116.95,623.90 118.03,623.14 118.63,622.91 C119.84,622.46 124.35,619.09 129.88,614.50 C131.87,612.85 134.21,611.05 135.08,610.50 C139.36,607.79 146.64,602.25 148.57,600.25 C149.76,599.01 151.07,598.00 151.48,598.00 C152.17,598.00 156.41,594.69 161.50,590.17 C162.60,589.20 166.57,586.17 170.31,583.45 C174.06,580.73 178.85,577.15 180.95,575.50 C183.05,573.85 186.03,571.60 187.58,570.50 C189.13,569.40 193.12,566.35 196.45,563.73 C199.78,561.11 203.79,557.96 205.36,556.73 C206.93,555.50 209.95,553.15 212.06,551.50 C214.17,549.85 218.03,546.92 220.65,545.00 C223.27,543.08 227.28,539.92 229.57,538.00 C234.98,533.46 235.47,533.07 249.20,522.66 C255.60,517.80 261.62,512.97 262.58,511.91 C263.53,510.86 264.74,510.00 265.27,510.00 C265.79,510.00 267.64,508.84 269.36,507.43 C276.05,501.96 288.59,492.32 293.90,488.57 C296.96,486.41 300.15,483.89 300.98,482.95 C301.82,482.02 306.10,478.62 310.50,475.38 C319.54,468.74 318.76,469.33 329.40,460.82 C333.74,457.34 338.30,453.83 339.52,453.00 C343.40,450.39 347.08,447.60 350.85,444.41 C352.86,442.70 355.23,440.90 356.11,440.41 C357.70,439.51 362.02,436.14 368.47,430.75 C370.28,429.24 372.13,428.00 372.58,428.00 C373.04,428.00 374.78,426.70 376.45,425.11 C378.13,423.51 383.77,419.04 389.00,415.16 C394.23,411.27 399.62,407.21 401.00,406.12 C414.74,395.21 419.00,391.43 419.00,390.13 C419.00,389.30 412.32,381.84 404.15,373.56 C384.39,353.53 378.93,347.74 379.35,347.32 C379.54,347.12 422.86,346.95 475.60,346.93 L 571.50 346.89 L 571.42 355.19 C571.26,371.19 567.31,420.45 565.58,428.04 C565.27,429.39 564.58,438.15 564.05,447.50 C563.51,456.85 562.63,466.98 562.10,470.00 C560.77,477.48 559.21,493.30 557.90,512.50 C557.30,521.30 556.33,529.08 555.75,529.79 C554.93,530.79 553.55,529.84 549.60,525.56 C519.46,492.94 516.51,490.00 514.02,490.00 C512.91,490.00 510.26,491.58 508.13,493.50 C506.00,495.42 503.77,497.00 503.18,497.00 C502.58,497.00 501.74,497.60 501.30,498.33 C500.86,499.06 496.51,502.72 491.64,506.46 C486.77,510.20 480.69,515.22 478.14,517.61 C475.59,520.01 473.23,521.97 472.91,521.98 C472.58,521.99 471.00,523.14 469.41,524.54 C467.81,525.93 464.02,528.97 461.00,531.28 C457.98,533.60 452.35,538.11 448.50,541.31 C444.65,544.52 439.92,548.45 438.00,550.05 C434.81,552.71 419.55,564.92 412.70,570.30 C411.16,571.51 408.63,573.62 407.08,575.00 C405.53,576.38 401.63,579.53 398.43,582.00 C395.22,584.47 387.98,590.44 382.33,595.25 C376.69,600.06 371.68,604.00 371.21,604.00 C370.74,604.00 369.26,605.17 367.92,606.59 C366.59,608.02 362.14,611.72 358.02,614.82 C353.91,617.92 349.81,621.14 348.91,621.98 C345.37,625.28 314.21,650.44 298.50,662.69 C295.20,665.26 290.88,668.75 288.90,670.43 C286.92,672.12 282.67,675.53 279.45,678.00 C271.62,684.03 253.38,698.61 248.90,702.43 C246.92,704.12 243.83,706.62 242.02,708.00 C239.31,710.07 234.58,713.99 223.31,723.50 C222.66,724.05 220.49,725.62 218.50,727.00 C216.51,728.38 210.52,733.11 205.19,737.53 C199.86,741.95 193.71,746.90 191.52,748.53 C186.96,751.93 187.43,751.57 175.50,761.09 C170.55,765.04 165.13,769.56 163.45,771.14 C161.78,772.71 160.03,774.00 159.57,774.00 C159.12,774.00 157.06,775.46 155.00,777.25 C143.77,787.00 140.04,790.12 135.56,793.53 C129.67,798.00 129.75,797.94 123.87,802.73 C121.33,804.80 117.81,807.62 116.05,809.00 C114.29,810.38 111.79,812.46 110.50,813.64 C109.20,814.82 105.29,817.94 101.82,820.58 C98.34,823.22 92.57,827.91 89.00,831.02 C85.43,834.12 79.80,838.63 76.50,841.04 C73.20,843.45 67.73,847.80 64.35,850.70 C60.48,854.04 58.04,855.53 57.74,854.74 Z" fill="rgb(254,254,254)"/>
</g>
</svg>